<svg width="40" height="40" viewBox="0 0 40 40" fill="none" xmlns="http://www.w3.org/2000/svg">
<path d="M12 8C12 7.44772 12.4477 7 13 7H27C27.5523 7 28 7.44772 28 8V22L23 17L18 22V8H12V8Z" fill="#24292F"/>
<path d="M10 14H8V32C8 33.1046 8.89543 34 10 34H28V32H10V14Z" fill="#24292F"/>
<path fill-rule="evenodd" clip-rule="evenodd" d="M12 8C12 7.44772 12.4477 7 13 7H27C27.5523 7 28 7.44772 28 8V22L23 17L18 22V8H12V8Z" fill="#24292F"/>
<path d="M14 28L20 22L26 28H14Z" fill="#24292F" opacity="0.6"/>
<path d="M14 18L20 12L26 18H14Z" fill="#24292F" opacity="0.6"/>
</svg>
